PathFileType	4	(X/Y/Z)	Run_200 01
DataRate	CameraRate	NumFrames	NumMarkers	Units	OrigDataRate	OrigDataStartFrame	OrigNumFrames
120	120	4	42	mm	120	240	128
Frame#	Time	LASI			RASI			LPSI			RPSI			RTH1			RTH2			RTH3			LTH1			LTH2			LTH3			RTB1			RTB2			RTB3			LTB1			LTB2			LTB3			RCAL			RTOE			RMT5			LCAL			LTOE			LMT5			LACR			RACR			CLAV			C7			RUA1			RUA2			RUA3			RLEL			LUA1			LUA2			LUA3			LLEL			RFAsuperior			RFAradius			RFAulna			LFAsuperior			LFAradius			LFAulna			LMEL			RMEL		
		X1	Y1	Z1	X2	Y2	Z2	X3	Y3	Z3	X4	Y4	Z4	X5	Y5	Z5	X6	Y6	Z6	X7	Y7	Z7	X8	Y8	Z8	X9	Y9	Z9	X10	Y10	Z10	X11	Y11	Z11	X12	Y12	Z12	X13	Y13	Z13	X14	Y14	Z14	X15	Y15	Z15	X16	Y16	Z16	X17	Y17	Z17	X18	Y18	Z18	X19	Y19	Z19	X20	Y20	Z20	X21	Y21	Z21	X22	Y22	Z22	X23	Y23	Z23	X24	Y24	Z24	X25	Y25	Z25	X26	Y26	Z26	X27	Y27	Z27	X28	Y28	Z28	X29	Y29	Z29	X30	Y30	Z30	X31	Y31	Z31	X32	Y32	Z32	X33	Y33	Z33	X34	Y34	Z34	X35	Y35	Z35	X36	Y36	Z36	X37	Y37	Z37	X38	Y38	Z38	X39	Y39	Z39	X40	Y40	Z40	X41	Y41	Z41	X42	Y42	Z42	

240	  2.000000	1080.667391	1054.076837	-425.165817	1074.109251	1045.723280	-191.742281	914.236605	1094.664864	-364.199029	911.625484	1092.546709	-265.948181	986.576354	892.080010	-139.446224	1019.516135	736.544875	-178.825129	935.730205	661.356660	-189.225085	1053.418593	892.007846	-490.861098	1159.427320	825.097767	-480.153442	1134.933187	684.244958	-456.453375	892.126298	423.737165	-255.713138	816.191409	403.093241	-196.565673	778.008919	283.080929	-257.924181	1245.777306	465.094321	-402.283342	1204.034154	368.278640	-450.128486	1223.137635	270.636048	-384.430788	604.072205	245.624383	-278.143778	744.311629	 93.788190	-314.705597	713.852056	 71.058930	-210.579423	1101.273821	152.482614	-371.932019	1303.964806	122.267133	-329.352633	1294.648934	 77.883434	-431.269479	1031.158559	1541.518898	-488.757498	1092.655535	1525.584658	-136.288347	1133.001285	1481.041621	-304.859556	1020.783361	1563.239517	-314.487390	1075.037056	1444.893903	-85.203595	1079.945460	1354.027290	-96.197036	997.019213	1357.882797	-60.828049	979.113881	1243.607727	-30.802173	967.090830	1499.519392	-531.285709	904.728257	1468.589869	-483.015364	910.946355	1408.153329	-547.207074	798.293656	1349.863084	-550.914372	1073.232807	1226.960746	-49.656041	1215.297665	1156.395830	-136.651869	1185.798570	1096.407652	-125.651607	860.263998	1297.701506	-566.649947	1004.211476	1167.743825	-522.406456	950.984225	1127.990795	-537.100451	792.181878	1353.195395	-477.093000	943.642672	1239.520949	-93.744095	
241	  2.008333	1081.323610	1055.437820	-424.729052	1074.778010	1048.105606	-192.092557	915.056685	1096.325579	-364.302812	912.408220	1094.759602	-266.023418	987.632479	894.926218	-139.139531	1021.008170	738.251771	-179.143123	937.938140	663.327567	-189.738447	1051.084853	891.640018	-490.146263	1157.520052	823.637896	-480.116191	1131.497890	682.889106	-455.941800	891.551534	426.217257	-256.422676	815.238678	407.352098	-196.765628	774.329917	287.986601	-257.834053	1245.516293	465.059015	-401.446091	1207.194659	367.395083	-449.581266	1230.557583	270.621687	-383.879800	600.810892	256.886828	-277.290255	733.286177	 98.208627	-314.278655	702.034467	 76.430877	-210.942350	1112.817881	149.312897	-370.011699	1316.425302	123.678377	-328.568220	1307.142076	 77.130822	-428.909350	1032.429658	1542.574567	-490.440675	1092.525641	1528.192273	-137.840068	1133.223585	1482.672815	-305.976387	1021.108137	1564.837485	-316.131827	1074.708706	1448.071200	-86.446192	1080.212051	1357.486027	-96.217850	996.717615	1361.071636	-62.011437	979.163258	1246.842366	-31.124746	968.174867	1501.696848	-532.819917	905.976931	1470.981153	-484.047289	911.425443	1410.446396	-548.160099	798.362248	1352.391377	-551.181197	1073.195770	1229.990566	-50.083915	1215.115440	1160.464057	-138.134765	1185.922752	1100.376379	-127.382300	860.302663	1300.391364	-566.958189	1005.216295	1171.311671	-523.282299	952.099782	1131.105936	-537.014029	792.700360	1356.063992	-477.372452	942.381669	1243.094448	-93.766300	
242	  2.016667	1081.917775	1056.005686	-424.376610	1075.403157	1049.607610	-192.171536	915.607359	1096.892783	-364.586768	913.002875	1096.056044	-266.084950	989.219156	896.478016	-139.107853	1023.644463	738.971680	-179.885941	941.506887	663.850067	-190.406492	1049.018754	890.405618	-489.235944	1156.548316	821.780484	-479.630387	1128.687785	681.228827	-455.681790	892.319715	427.464904	-257.369601	815.702990	410.685666	-197.269466	771.351138	292.395507	-257.979432	1244.980098	464.690418	-400.639028	1209.162887	366.568376	-448.854624	1235.970834	270.622955	-383.159627	598.021554	267.841835	-276.379383	722.789183	103.014499	-313.854392	690.985089	 82.204971	-211.262100	1121.310972	147.547207	-367.759615	1325.330282	123.916699	-327.457999	1315.702824	 75.702640	-426.297883	1033.756813	1542.726518	-492.273312	1092.101381	1529.976451	-139.427560	1133.429501	1483.587303	-307.068664	1021.380092	1565.718789	-317.909707	1073.884620	1450.345462	-87.715181	1079.935717	1360.209976	-96.232811	995.809643	1363.299631	-63.504254	978.566457	1249.243021	-31.797218	969.412868	1502.690630	-534.551173	907.295442	1472.288481	-485.389405	912.156147	1411.635815	-549.298854	798.656107	1353.840844	-551.726256	1072.512692	1231.793878	-50.502544	1214.303073	1162.839527	-139.231311	1185.178441	1102.769706	-128.626173	860.665978	1302.048839	-567.469417	1006.571857	1173.986582	-524.133044	953.575568	1133.287652	-536.916877	793.334731	1357.818426	-478.008865	940.996597	1245.874980	-94.258992	
243	  2.025000	1082.422800	1055.773914	-424.101941	1075.991348	1050.227664	-192.228873	915.892540	1096.412798	-364.899007	913.414473	1096.298179	-266.001517	991.432561	896.506940	-139.363986	1027.396478	738.733341	-181.142819	946.332307	662.939846	-191.268908	1047.604915	888.693715	-488.337932	1156.203025	819.450334	-478.875423	1126.411626	679.359803	-455.429156	894.256056	427.532524	-258.478827	817.491232	413.119905	-197.966261	769.009767	296.393094	-258.304797	1244.256340	464.031747	-399.805751	1210.052806	365.570877	-447.840584	1239.117051	270.325873	-382.082177	595.664756	278.497349	-275.406585	713.030651	108.283681	-313.371180	680.882396	 88.522890	-211.308292	1126.373611	146.488578	-365.364681	1330.490326	123.009022	-325.905053	1320.502290	 74.026844	-423.824202	1035.109052	1541.977907	-494.169791	1091.489414	1530.904100	-141.093440	1133.627301	1483.761259	-308.135489	1021.634377	1565.866083	-319.808108	1072.667587	1451.762546	-88.972868	1079.142620	1362.115734	-96.249842	994.383239	1364.685766	-65.195296	977.334454	1250.866570	-32.743727	970.784067	1502.457301	-536.556138	908.688917	1472.457139	-487.010288	913.099967	1411.684974	-550.631936	799.171870	1354.182454	-552.599070	1071.192544	1232.462778	-50.947179	1212.840311	1163.513711	-139.951014	1183.512915	1103.610848	-129.271427	861.334679	1302.650787	-568.206637	1008.263040	1175.742627	-524.931219	955.409979	1134.519752	-536.801542	794.062278	1358.449695	-478.986461	939.794231	1247.695848	-95.304963	
